HIERARCHY
ROOT Bip001_Pelvis
{
  OFFSET 7.937 94.8971 -8.5489
  CHANNELS 6 Xposition Yposition Zposition Zrotation Xrotation Yrotation
  JOINT Bip001_Spine
  {
    OFFSET 1.44608e-005 10.4157 -0.0118244
    CHANNELS 3 Zrotation Xrotation Yrotation
    JOINT Bip001_L_Thigh
    {
      OFFSET 11.2582 -10.4157 0.0118432
      CHANNELS 3 Zrotation Xrotation Yrotation
      JOINT Bip001_L_Calf
      {
        OFFSET -0.720717 -44.8687 0.366937
        CHANNELS 3 Zrotation Xrotation Yrotation
        JOINT Bip001_L_Foot
        {
          OFFSET -0.664439 -41.3745 -3.62995
          CHANNELS 3 Zrotation Xrotation Yrotation
          JOINT Bip001_L_Toe0
          {
            OFFSET 0.0541047 -10.4146 13.4033
            CHANNELS 3 Zrotation Xrotation Yrotation
            End Site
            {
              OFFSET -1.04503e-005 0 7.70137
            }
          }
        }
      }
    }
    JOINT Bip001_R_Thigh
    {
      OFFSET -11.2582 -10.4156 0.0118122
      CHANNELS 3 Zrotation Xrotation Yrotation
      JOINT Bip001_R_Calf
      {
        OFFSET 0.72059 -44.8687 0.36676
        CHANNELS 3 Zrotation Xrotation Yrotation
        JOINT Bip001_R_Foot
        {
          OFFSET 0.664321 -41.3745 -3.62979
          CHANNELS 3 Zrotation Xrotation Yrotation
          JOINT Bip001_R_Toe0
          {
            OFFSET -0.05417 -10.4146 13.4033
            CHANNELS 3 Zrotation Xrotation Yrotation
            End Site
            {
              OFFSET -1.04873e-005 0 7.70137
            }
          }
        }
      }
    }
    JOINT Bip001_Spine1
    {
      OFFSET 1.90638e-005 14.8539 1.10727
      CHANNELS 3 Zrotation Xrotation Yrotation
      JOINT Bip001_Spine2
      {
        OFFSET 2.28934e-005 14.7848 -1.7233
        CHANNELS 3 Zrotation Xrotation Yrotation
        JOINT Bip001_Neck
        {
          OFFSET 2.24514e-005 15.6905 -0.498826
          CHANNELS 3 Zrotation Xrotation Yrotation
          JOINT Bip001_L_Clavicle
          {
            OFFSET 6.17691 -0.000591152 0.00852867
            CHANNELS 3 Zrotation Xrotation Yrotation
            JOINT Bip001_L_UpperArm
            {
              OFFSET 11.773 -0.0611878 0.00197697
              CHANNELS 3 Zrotation Xrotation Yrotation
              JOINT Bip001_L_Forearm
              {
                OFFSET 26.4515 0.0817568 -2.19579
                CHANNELS 3 Zrotation Xrotation Yrotation
                JOINT Bip001_L_Hand
                {
                  OFFSET 32.8677 0.156744 1.67112
                  CHANNELS 3 Zrotation Xrotation Yrotation
                  JOINT Bip001_L_Finger0
                  {
                    OFFSET 6.16268 -2.25226 6.01674
                    CHANNELS 3 Zrotation Xrotation Yrotation
                    End Site
                    {
                      OFFSET 4.30499 -1.46662 0.618148
                    }
                  }
                  JOINT Bip001_L_Finger1
                  {
                    OFFSET 11.2957 -0.718374 -0.201963
                    CHANNELS 3 Zrotation Xrotation Yrotation
                    End Site
                    {
                      OFFSET 6.31952 -0.405163 -0.0802303
                    }
                  }
                }
              }
            }
          }
          JOINT Bip001_R_Clavicle
          {
            OFFSET -6.17691 -0.000574027 0.00851165
            CHANNELS 3 Zrotation Xrotation Yrotation
            JOINT Bip001_R_UpperArm
            {
              OFFSET -11.773 -0.0611516 0.00194365
              CHANNELS 3 Zrotation Xrotation Yrotation
              JOINT Bip001_R_Forearm
              {
                OFFSET -26.4514 0.0822334 -2.19736
                CHANNELS 3 Zrotation Xrotation Yrotation
                JOINT Bip001_R_Hand
                {
                  OFFSET -32.8677 0.156817 1.67144
                  CHANNELS 3 Zrotation Xrotation Yrotation
                  JOINT Bip001_R_Finger0
                  {
                    OFFSET -6.1627 -2.25224 6.0167
                    CHANNELS 3 Zrotation Xrotation Yrotation
                    End Site
                    {
                      OFFSET -4.30499 -1.46662 0.618134
                    }
                  }
                  JOINT Bip001_R_Finger1
                  {
                    OFFSET -11.2958 -0.718344 -0.201994
                    CHANNELS 3 Zrotation Xrotation Yrotation
                    End Site
                    {
                      OFFSET -6.31952 -0.405146 -0.0802475
                    }
                  }
                }
              }
            }
          }
          JOINT Bip001_Head
          {
            OFFSET 1.11782e-005 11.4912 2.09908
            CHANNELS 3 Zrotation Xrotation Yrotation
            End Site
            {
              OFFSET 2.95144e-005 21.2823 -2.83069e-005
            }
          }
        }
      }
    }
  }
}
MOTION
Frames:	16
Frame Time:	0.04
3.14243 95.3289 -9.37404 0.0961783 0.877572 19.7275 -0.197862 0.230976 1.25348 5.99987 -13.2341 5.94016 0.269507 12.6602 -8.54932 -5.16224 -0.0982755 -7.79446 0.594534 -10.1377 -1.08432 -5.42985 -5.41532 -4.35953 1.9648 17.9244 -0.0265634 -4.30999 -10.3152 -22.2557 0.507351 -11.2388 -1.88884 -0.23915 0.459275 2.52264 -0.23915 0.459275 2.52264 2.0166 -2.55977 -6.41849 -30.7811 4.8119 -6.17215 -49.8583 36.1786 6.44774 17.0123 5.88162 -30.4241 -3.15166 0.286153 -2.67395 -3.18055e-015 6.36111e-015 3.18055e-015 -4.77083e-015 0 3.18055e-015 6.64609 5.298 14.2172 28.7165 -37.369 38.7246 -35.8894 2.50606 52.5797 -34.2011 2.99315 -3.60167 -1.76556e-031 -1.59028e-015 -6.36111e-015 -1.43452e-031 -1.59028e-015 -5.1684e-015 -0.300916 6.64319 -5.55684 
2.93987 95.2994 -9.37605 0.15217 0.310603 19.3444 -0.0840967 0.501638 0.960897 6.23272 -13.0262 5.969 0.2789 12.9296 -8.72366 -5.33387 -0.34198 -7.11558 0.615541 -10.1122 -0.987678 -5.11887 -5.38821 -3.40695 1.85578 18.0764 -0.241822 -4.28856 -10.3086 -22.4086 0.416198 -11.2462 -1.76809 -0.0405025 1.0029 1.93462 -0.0405029 1.00292 1.93462 0.987022 -1.99173 -5.26116 -29.9317 4.53548 -5.99822 -50.0591 37.5155 6.93258 17.3486 6.15588 -29.114 -4.87559 0.0905438 -3.16126 1.59028e-015 -3.18055e-015 -3.18055e-015 1.59028e-015 -6.36111e-015 -3.18055e-015 8.9739 5.25101 14.8675 31.4337 -39.6093 38.2272 -38.6389 2.88041 58.9515 -32.7005 3.24539 -2.2914 3.18055e-015 -3.18055e-015 -1.59028e-015 3.18055e-015 -3.18056e-015 -2.38542e-015 0.856493 6.2605 -5.02984 
3.04256 95.3426 -9.341 0.451807 -0.189904 17.8969 -0.0772495 0.70539 1.0705 6.17273 -12.1912 6.20962 0.282773 12.6973 -8.0712 -5.388 -0.463772 -6.67232 0.614614 -10.1459 -1.04932 -5.36254 -5.21519 -3.31016 1.75954 17.9938 -0.0260626 -3.98988 -10.2215 -21.5131 0.167929 -11.2491 -1.53012 -0.0894937 1.40992 2.15141 -0.0895856 1.40992 2.15133 1.1728 -1.58634 -5.43091 -30.3245 4.45046 -7.06923 -50.1298 39.2176 7.73002 16.9532 7.28625 -26.2762 -6.37265 -0.00125952 -4.0843 3.18055e-015 -9.54166e-015 3.18055e-015 3.18055e-015 -6.36111e-015 4.77083e-015 12.0098 5.45173 14.4597 33.4274 -41.788 38.0674 -42.0905 4.3534 67.0029 -34.3814 3.80091 -1.69267 -1.59028e-015 2.38542e-015 1.19271e-015 1.65522e-032 4.77083e-015 -1.98785e-016 0.630317 6.21229 -5.09192 
3.13616 95.3293 -9.48959 0.452715 -0.643507 15.9473 -0.0334627 0.871957 1.04561 6.51289 -11.773 6.87784 0.16928 13.1674 -7.06143 -5.36862 -0.933652 -6.52378 0.628506 -10.1202 -0.941725 -5.38139 -5.53403 -2.6402 1.66296 18.2003 0.382396 -3.84478 -10.0401 -20.6978 0.0825175 -11.2769 -1.38215 -0.0305924 1.74363 2.09941 -0.0312209 1.74362 2.09934 0.931357 -1.44107 -5.29465 -30.1952 4.34098 -7.01639 -49.965 39.5249 7.84955 16.6999 10.2049 -24.2579 -7.35851 0.0235669 -4.37265 5.29669e-031 -9.54166e-015 3.18055e-015 1.59028e-015 -9.54167e-015 3.18055e-015 15.1508 5.93002 14.3194 36.6862 -43.84 37.1689 -44.3219 4.91069 76.6112 -33.576 4.56909 -0.897829 8.27607e-033 -2.38542e-015 1.98785e-016 7.72434e-032 -3.18056e-015 1.39149e-015 0.520186 6.42395 -5.00202 
3.35054 95.3264 -9.59785 0.679022 -1.11428 14.0292 -0.00351391 1.07823 0.855542 6.60447 -11.0494 7.24622 -0.208688 13.2296 -5.9828 -5.205 -1.27557 -5.95988 0.646352 -10.0871 -0.834129 -5.64848 -5.85151 -1.76183 1.56275 18.555 0.967454 -3.69971 -9.97265 -20.0969 0.0359788 -11.3033 -1.26822 0.0119839 2.15656 1.71727 0.0130277 2.15656 1.71734 0.158742 -1.38778 -5.06395 -29.929 4.32796 -6.70695 -51.1182 42.6936 10.0084 17.1906 8.40816 -23.8765 -8.61181 -0.156667 -3.27603 -0 0 7.95139e-016 1.59028e-015 3.18056e-015 -0 18.4055 6.48607 14.3395 37.3628 -42.9658 33.3893 -45.5346 4.1082 83.8105 -33.8181 4.16298 0.114018 -6.36111e-015 0 1.19271e-015 -3.18055e-015 0 1.19271e-015 0.684654 6.23133 -5.04414 
3.56026 95.3538 -9.64384 0.763584 -1.36069 12.3692 0.0359687 1.15676 0.577295 6.61743 -10.4343 8.43138 -0.145009 13.2104 -5.14684 -5.19905 -1.47895 -6.06495 0.639886 -10.0934 -0.863454 -5.85706 -6.04353 -1.38846 1.34327 18.5644 1.30504 -3.36814 -9.90824 -18.9844 -0.122424 -11.3284 -1.04521 0.0723978 2.31371 1.15886 0.0725959 2.3138 1.15895 -0.42703 -0.738809 -5.0712 -29.7633 3.76381 -6.78889 -51.4118 41.8912 10.7442 16.5455 8.66894 -23.2528 -9.50157 -0.277124 -2.62941 7.95139e-016 6.36111e-015 -1.59028e-015 8.82782e-032 6.36111e-015 -7.95139e-016 21.5934 6.58674 14.8445 34.381 -38.4453 25.7 -45.8401 2.01136 87.7961 -35.9566 3.06558 1.99879 3.18055e-015 0 7.95139e-016 -3.31043e-032 1.59028e-015 1.19271e-015 0.746525 5.71642 -5.24351 
3.76389 95.3936 -9.66329 0.717878 -1.44217 10.7993 0.0839346 1.20599 0.270949 6.69023 -10.0081 9.5363 -0.112042 13.2334 -4.47542 -5.18005 -1.70485 -5.9413 0.628597 -10.1215 -0.920452 -5.98465 -6.26981 -0.949222 1.18019 18.3521 1.52929 -3.02022 -9.74868 -17.8924 -0.295689 -11.3486 -0.831896 0.151694 2.41239 0.543925 0.1533 2.41238 0.544043 -0.885906 -0.589877 -5.13158 -29.4632 3.49565 -6.35905 -51.6707 41.6435 10.9194 15.6318 7.75761 -22.8501 -9.84671 -0.448387 -2.13291 -0 -3.18055e-015 -0 7.95139e-016 -3.18056e-015 -3.97569e-016 25.2677 7.19738 14.7986 30.6 -32.1674 17.3873 -45.5497 0.623951 90.3617 -35.8258 3.13291 3.99125 -3.18055e-015 0 -1.59028e-015 -3.18055e-015 -1.59028e-015 -1.59028e-015 0.527588 5.5479 -5.37515 
4.02028 95.4055 -9.62909 0.718752 -1.71577 8.79992 0.100692 1.23385 0.123002 6.74219 -9.30093 9.96137 -0.258896 13.3601 -3.77204 -5.11183 -2.20705 -5.05582 0.642517 -10.0958 -0.841142 -5.99661 -6.43845 -0.381831 0.737695 18.3613 2.19603 -2.55368 -9.61925 -16.934 -0.399747 -11.3663 -0.697761 0.169349 2.46789 0.246165 0.169788 2.46789 0.246208 -0.932938 0.0200303 -5.34799 -29.2419 2.90919 -6.60859 -52.2363 41.3417 11.3739 15.0464 6.98728 -22.6825 -9.57174 -0.420087 -2.07361 7.95139e-016 6.36111e-015 3.97569e-016 -7.95139e-016 0 1.19271e-015 27.8794 7.23168 14.8708 29.1118 -24.7025 9.05554 -46.0046 0.431428 90.8509 -34.5314 2.52245 4.40376 3.18055e-015 1.59028e-015 7.95139e-016 6.36111e-015 3.18056e-015 -7.95139e-016 0.087841 5.18132 -5.49567 
4.26848 95.4123 -9.56306 0.615893 -1.98336 7.09887 0.148086 1.25367 -0.0508494 6.84276 -8.70031 10.9074 -0.279432 13.6021 -3.73502 -5.02715 -2.74583 -4.33698 0.662438 -10.0632 -0.737159 -6.06678 -6.48274 0.391756 0.686766 18.2318 2.34522 -2.1956 -9.46131 -16.0498 -0.518037 -11.3887 -0.527346 0.250832 2.50718 -0.103994 0.251326 2.50718 -0.104018 -1.21819 0.167879 -5.50149 -28.865 2.7527 -6.60621 -52.3758 41.3024 11.3707 14.6975 6.29388 -22.9222 -8.98473 -0.496048 -1.95516 2.38542e-015 -3.18055e-015 -7.95139e-016 1.59028e-015 -3.18056e-015 -3.97569e-016 30.1026 7.51466 14.6413 29.7259 -16.2904 1.54093 -41.9897 2.24591 88.9234 -30.0478 3.73297 3.38723 3.18055e-015 -1.98785e-015 -7.95139e-016 3.18055e-015 -3.18056e-015 -7.95139e-016 -0.263722 5.20702 -5.64071 
4.69631 95.43 -9.30571 0.798051 -2.39925 5.34308 0.131456 1.30657 -0.227318 6.50284 -7.62851 10.1066 -0.611282 13.3964 -2.31411 -4.89259 -3.24554 -3.2086 0.690722 -10.0257 -0.601927 -6.5628 -6.31437 -0.0230952 0.441322 18.2336 3.34591 -1.78153 -9.49371 -14.7485 -0.609473 -11.427 -0.31915 0.200992 2.61273 -0.457683 0.201082 2.61273 -0.457663 -1.68224 0.172208 -5.36139 -28.2284 2.72649 -6.38338 -52.0529 41.421 10.5261 14.3643 5.87046 -22.9215 -7.68933 -0.386439 -2.07546 1.59028e-015 3.18055e-015 -7.95139e-016 1.59028e-015 6.36111e-015 -7.95139e-016 31.7721 7.82747 14.6826 32.7187 -9.42822 -4.42668 -39.3876 4.61308 84.0854 -18.6343 6.01688 0.72973 -8.27607e-033 1.19271e-015 3.97569e-016 1.59028e-015 2.73329e-015 7.95139e-016 -0.335491 5.15031 -5.62039 
4.97803 95.4462 -9.18165 0.58487 -2.88866 3.70296 0.164648 1.36959 -0.370216 6.6742 -6.86565 9.50615 -1.08169 13.6381 -1.20415 -4.69589 -3.84813 -2.07518 0.716149 -9.98718 -0.492474 -6.4866 -6.04719 0.46447 0.212032 17.8792 3.69922 -1.39847 -9.21028 -13.8341 -0.662158 -11.4685 -0.144468 0.258767 2.73835 -0.745307 0.259214 2.73834 -0.745315 -2.08302 0.0160644 -5.12681 -27.7282 3.06094 -6.66737 -51.6161 41.2374 9.92117 14.3074 5.00736 -23.4346 -6.59464 -0.31655 -1.95613 -3.18055e-015 -3.18055e-015 7.95139e-016 -3.18055e-015 -3.18056e-015 7.95139e-016 33.0936 8.08712 14.4018 37.471 1.02199 -8.34501 -36.4033 3.51294 73.2317 -5.52862 5.34886 -4.68862 1.59028e-015 0 -6.36111e-015 0 0 -6.36111e-015 0.0720671 5.32639 -5.6167 
5.32915 95.4555 -9.01881 0.511655 -3.2962 2.26202 0.153465 1.41772 -0.537933 6.56896 -6.09561 9.21882 -1.31555 13.6917 -0.529717 -4.51109 -4.35811 -0.993095 0.741068 -9.94744 -0.397407 -6.63585 -5.82995 0.77383 0.073637 17.6593 4.20434 -1.06156 -9.05588 -13.0333 -0.713617 -11.4934 -0.0272267 0.227832 2.83437 -1.08106 0.228389 2.83436 -1.08103 -2.01967 0.0114838 -4.77646 -27.6488 3.28944 -7.18733 -50.7727 40.0835 8.70333 13.8881 4.64821 -23.7155 -5.01217 -0.304781 -1.82849 -3.18055e-015 0 -0 -1.59028e-015 0 -7.95139e-016 34.3649 8.24026 14.2274 41.1641 11.861 -10.9492 -23.5197 -2.2268 62.3307 2.28813 3.5694 -16.4582 6.36111e-015 9.54166e-015 -3.18055e-015 1.41245e-030 1.27222e-014 -6.36111e-015 -0.0444609 5.01049 -5.22554 
5.6841 95.4455 -8.83474 0.482961 -3.84288 0.82751 0.132745 1.50985 -0.704781 6.42238 -5.23379 10.0056 -1.29939 13.8201 -0.141558 -4.39908 -4.82798 -0.705167 0.753623 -9.92779 -0.344341 -6.80009 -5.60228 0.660245 -0.289716 17.6306 5.0353 -0.716885 -8.99163 -12.0775 -0.707482 -11.5307 0.0678089 0.189557 3.01851 -1.41458 0.189262 3.01851 -1.41458 -2.0071 0.114029 -4.14929 -27.6037 3.59446 -8.08803 -50.4185 40.1587 8.2072 13.6416 2.62689 -24.4685 -3.37761 -0.25199 -1.07421 3.18055e-015 3.18055e-015 -7.95139e-016 -1.59028e-015 0 7.95139e-016 34.685 8.03835 14.2127 45.0482 20.455 -12.4391 -13.1653 -9.84845 52.3014 7.61113 0.657194 -26.2369 -3.18055e-015 -6.36111e-015 1.59028e-015 -3.18055e-015 3.18056e-015 3.18055e-015 -0.13149 4.40193 -4.59768 
6.03327 95.4103 -8.65959 0.357641 -4.33112 -0.602863 0.144544 1.58636 -0.831502 6.32637 -4.55737 10.8943 -1.26455 14.2096 -0.0970547 -4.26001 -5.43609 -0.251661 0.770568 -9.90677 -0.259738 -6.89505 -5.46482 0.662678 -0.649218 17.6694 5.82128 -0.449934 -8.9305 -11.2239 -0.635655 -11.5714 0.127357 0.220323 3.17109 -1.66887 0.220627 3.17109 -1.66863 -2.11908 0.0681647 -3.40134 -27.6251 4.07977 -8.94085 -49.7717 40.2846 7.3408 13.1289 0.856531 -24.9824 -1.90657 -0.165134 -1.19085 8.82781e-032 -3.18055e-015 1.59028e-015 3.18055e-015 -6.36111e-015 1.59028e-015 34.6074 7.8583 14.2207 48.0395 26.7152 -12.4366 -7.74735 -14.8658 40.5167 16.2306 -2.41689 -28.8224 -1.98785e-016 -3.18055e-015 -3.97569e-016 -1.98785e-016 -3.18056e-015 -3.97569e-016 -0.230106 4.07464 -3.87857 
6.34553 95.3933 -8.51684 0.169183 -4.71701 -1.83564 0.167368 1.63599 -0.898691 6.1855 -4.01074 10.394 -1.37502 14.4676 0.641146 -4.15526 -5.97361 0.617392 0.795403 -9.86934 -0.120764 -6.97048 -5.28522 2.27492 -0.323789 17.515 5.43555 -0.349417 -8.77042 -11.1648 -0.610352 -11.5818 0.150401 0.251461 3.27003 -1.80161 0.251362 3.27003 -1.80176 -2.38038 0.336031 -2.61103 -27.5933 4.3615 -10.0641 -48.7912 40.6046 6.29216 12.6238 -0.667046 -25.4734 -1.17639 -0.199732 -1.17936 8.82781e-032 -3.18055e-015 1.59028e-015 8.82782e-032 -3.18056e-015 1.59028e-015 35.2596 7.56123 14.4502 50.2777 31.1149 -13.3669 -5.22908 -17.8566 31.0927 22.7543 -4.13187 -28.0144 -8.82781e-032 -3.18055e-015 -1.59028e-015 2.38542e-015 0 -3.18055e-015 -0.0150127 3.44224 -3.2514 
6.67099 95.3701 -8.35943 0.0266894 -5.20613 -2.80046 0.149921 1.69933 -0.925978 6.04598 -3.37227 10.3664 -1.43411 14.6567 1.53154 -4.00022 -6.3949 0.710051 0.681518 -9.78777 -0.135636 -7.07662 -4.96111 2.19192 -0.55705 17.4186 5.72668 -0.014594 -8.69921 -10.325 -0.596052 -11.6111 0.228242 0.227928 3.39683 -1.85201 0.227939 3.39683 -1.85189 -2.30383 0.272225 -2.02507 -27.5646 4.69346 -10.6001 -48.2737 41.3221 5.32725 12.8918 -1.39094 -26.1563 -1.29953 -0.341247 -1.24254 3.18055e-015 0 -1.59028e-015 0 0 -0 35.0247 7.34378 14.2281 53.8609 35.2927 -15.469 -3.31566 -22.0481 25.5049 22.5624 -4.06142 -26.4159 1.59028e-015 3.18055e-015 -3.18055e-015 3.18055e-015 0 -3.18055e-015 -0.236308 3.185 -2.60214 
